<?xml version="1.0" encoding="UTF-8" standalone="no"?>
<!-- Created with Inkscape (http://www.inkscape.org/) -->

<svg
   width="750"
   height="650"
   viewBox="0 0 198.4375 171.97916"
   version="1.1"
   id="svg5"
   inkscape:version="1.1.2 (b8e25be833, 2022-02-05)"
   sodipodi:docname="connect4.svg"
   inkscape:export-filename="C:\Users\Vinh\OneDrive\Nucamp\Python\Connect4\connect4.png"
   inkscape:export-xdpi="96"
   inkscape:export-ydpi="96"
   xmlns:inkscape="http://www.inkscape.org/namespaces/inkscape"
   xmlns:sodipodi="http://sodipodi.sourceforge.net/DTD/sodipodi-0.dtd"
   xmlns="http://www.w3.org/2000/svg"
   xmlns:svg="http://www.w3.org/2000/svg">
  <sodipodi:namedview
     id="namedview7"
     pagecolor="#ffffff"
     bordercolor="#cccccc"
     borderopacity="1"
     inkscape:pageshadow="0"
     inkscape:pageopacity="0"
     inkscape:pagecheckerboard="0"
     inkscape:document-units="px"
     showgrid="false"
     units="px"
     inkscape:zoom="1.0368618"
     inkscape:cx="169.26074"
     inkscape:cy="323.09031"
     inkscape:window-width="1920"
     inkscape:window-height="1009"
     inkscape:window-x="-8"
     inkscape:window-y="-8"
     inkscape:window-maximized="1"
     inkscape:current-layer="layer1" />
  <defs
     id="defs2">
    <filter
       id="mask-powermask-path-effect9169_inverse"
       inkscape:label="filtermask-powermask-path-effect9169"
       style="color-interpolation-filters:sRGB"
       height="100"
       width="100"
       x="-50"
       y="-50">
      <feColorMatrix
         id="mask-powermask-path-effect9169_primitive1"
         values="1"
         type="saturate"
         result="fbSourceGraphic" />
      <feColorMatrix
         id="mask-powermask-path-effect9169_primitive2"
         values="-1 0 0 0 1 0 -1 0 0 1 0 0 -1 0 1 0 0 0 1 0 "
         in="fbSourceGraphic" />
    </filter>
    <filter
       id="mask-powermask-path-effect11815_inverse"
       inkscape:label="filtermask-powermask-path-effect11815"
       style="color-interpolation-filters:sRGB"
       height="100"
       width="100"
       x="-50"
       y="-50">
      <feColorMatrix
         id="mask-powermask-path-effect11815_primitive1"
         values="1"
         type="saturate"
         result="fbSourceGraphic" />
      <feColorMatrix
         id="mask-powermask-path-effect11815_primitive2"
         values="-1 0 0 0 1 0 -1 0 0 1 0 0 -1 0 1 0 0 0 1 0 "
         in="fbSourceGraphic" />
    </filter>
  </defs>
  <g
     inkscape:label="Layer 1"
     inkscape:groupmode="layer"
     id="layer1">
    <path
       id="rect84"
       clip-path="none"
       style="fill:#5b50af;fill-opacity:1;stroke:#000000;stroke-width:3"
       d="M 77.292969 12.5 C 41.397755 12.5 12.5 41.397759 12.5 77.292969 L 12.5 572.70703 C 12.5 608.60223 41.397755 637.5 77.292969 637.5 L 672.70703 637.5 C 708.60223 637.5 737.5 608.60223 737.5 572.70703 L 737.5 77.292969 C 737.5 41.397759 708.60223 12.5 672.70703 12.5 L 77.292969 12.5 z M 75 30.451172 A 43.548383 43.548383 0 0 1 118.54883 74 A 43.548383 43.548383 0 0 1 75 117.54883 A 43.548383 43.548383 0 0 1 31.451172 74 A 43.548383 43.548383 0 0 1 75 30.451172 z M 175 30.451172 A 43.548383 43.548383 0 0 1 218.54883 74 A 43.548383 43.548383 0 0 1 175 117.54883 A 43.548383 43.548383 0 0 1 131.45117 74 A 43.548383 43.548383 0 0 1 175 30.451172 z M 275 30.451172 A 43.548383 43.548383 0 0 1 318.54883 74 A 43.548383 43.548383 0 0 1 275 117.54883 A 43.548383 43.548383 0 0 1 231.45117 74 A 43.548383 43.548383 0 0 1 275 30.451172 z M 375 30.451172 A 43.548383 43.548383 0 0 1 418.54883 74 A 43.548383 43.548383 0 0 1 375 117.54883 A 43.548383 43.548383 0 0 1 331.45117 74 A 43.548383 43.548383 0 0 1 375 30.451172 z M 475 30.451172 A 43.548383 43.548383 0 0 1 518.54883 74 A 43.548383 43.548383 0 0 1 475 117.54883 A 43.548383 43.548383 0 0 1 431.45117 74 A 43.548383 43.548383 0 0 1 475 30.451172 z M 575 30.451172 A 43.548383 43.548383 0 0 1 618.54883 74 A 43.548383 43.548383 0 0 1 575 117.54883 A 43.548383 43.548383 0 0 1 531.45117 74 A 43.548383 43.548383 0 0 1 575 30.451172 z M 675 32.451172 A 43.548383 43.548383 0 0 1 718.54883 76 A 43.548383 43.548383 0 0 1 675 119.54883 A 43.548383 43.548383 0 0 1 631.45117 76 A 43.548383 43.548383 0 0 1 675 32.451172 z M 75 130.45117 A 43.548383 43.548383 0 0 1 118.54883 174 A 43.548383 43.548383 0 0 1 75 217.54883 A 43.548383 43.548383 0 0 1 31.451172 174 A 43.548383 43.548383 0 0 1 75 130.45117 z M 175 130.45117 A 43.548383 43.548383 0 0 1 218.54883 174 A 43.548383 43.548383 0 0 1 175 217.54883 A 43.548383 43.548383 0 0 1 131.45117 174 A 43.548383 43.548383 0 0 1 175 130.45117 z M 275 130.45117 A 43.548383 43.548383 0 0 1 318.54883 174 A 43.548383 43.548383 0 0 1 275 217.54883 A 43.548383 43.548383 0 0 1 231.45117 174 A 43.548383 43.548383 0 0 1 275 130.45117 z M 375 130.45117 A 43.548383 43.548383 0 0 1 418.54883 174 A 43.548383 43.548383 0 0 1 375 217.54883 A 43.548383 43.548383 0 0 1 331.45117 174 A 43.548383 43.548383 0 0 1 375 130.45117 z M 475 130.45117 A 43.548383 43.548383 0 0 1 518.54883 174 A 43.548383 43.548383 0 0 1 475 217.54883 A 43.548383 43.548383 0 0 1 431.45117 174 A 43.548383 43.548383 0 0 1 475 130.45117 z M 575 130.45117 A 43.548383 43.548383 0 0 1 618.54883 174 A 43.548383 43.548383 0 0 1 575 217.54883 A 43.548383 43.548383 0 0 1 531.45117 174 A 43.548383 43.548383 0 0 1 575 130.45117 z M 675 132.45117 A 43.548383 43.548383 0 0 1 718.54883 176 A 43.548383 43.548383 0 0 1 675 219.54883 A 43.548383 43.548383 0 0 1 631.45117 176 A 43.548383 43.548383 0 0 1 675 132.45117 z M 75 230.45117 A 43.548383 43.548383 0 0 1 118.54883 274 A 43.548383 43.548383 0 0 1 75 317.54883 A 43.548383 43.548383 0 0 1 31.451172 274 A 43.548383 43.548383 0 0 1 75 230.45117 z M 175 230.45117 A 43.548383 43.548383 0 0 1 218.54883 274 A 43.548383 43.548383 0 0 1 175 317.54883 A 43.548383 43.548383 0 0 1 131.45117 274 A 43.548383 43.548383 0 0 1 175 230.45117 z M 275 230.45117 A 43.548383 43.548383 0 0 1 318.54883 274 A 43.548383 43.548383 0 0 1 275 317.54883 A 43.548383 43.548383 0 0 1 231.45117 274 A 43.548383 43.548383 0 0 1 275 230.45117 z M 375 230.45117 A 43.548383 43.548383 0 0 1 418.54883 274 A 43.548383 43.548383 0 0 1 375 317.54883 A 43.548383 43.548383 0 0 1 331.45117 274 A 43.548383 43.548383 0 0 1 375 230.45117 z M 475 230.45117 A 43.548383 43.548383 0 0 1 518.54883 274 A 43.548383 43.548383 0 0 1 475 317.54883 A 43.548383 43.548383 0 0 1 431.45117 274 A 43.548383 43.548383 0 0 1 475 230.45117 z M 575 230.45117 A 43.548383 43.548383 0 0 1 618.54883 274 A 43.548383 43.548383 0 0 1 575 317.54883 A 43.548383 43.548383 0 0 1 531.45117 274 A 43.548383 43.548383 0 0 1 575 230.45117 z M 675 232.45117 A 43.548383 43.548383 0 0 1 718.54883 276 A 43.548383 43.548383 0 0 1 675 319.54883 A 43.548383 43.548383 0 0 1 631.45117 276 A 43.548383 43.548383 0 0 1 675 232.45117 z M 75 330.45117 A 43.548383 43.548383 0 0 1 118.54883 374 A 43.548383 43.548383 0 0 1 75 417.54883 A 43.548383 43.548383 0 0 1 31.451172 374 A 43.548383 43.548383 0 0 1 75 330.45117 z M 175 330.45117 A 43.548383 43.548383 0 0 1 218.54883 374 A 43.548383 43.548383 0 0 1 175 417.54883 A 43.548383 43.548383 0 0 1 131.45117 374 A 43.548383 43.548383 0 0 1 175 330.45117 z M 275 330.45117 A 43.548383 43.548383 0 0 1 318.54883 374 A 43.548383 43.548383 0 0 1 275 417.54883 A 43.548383 43.548383 0 0 1 231.45117 374 A 43.548383 43.548383 0 0 1 275 330.45117 z M 375 330.45117 A 43.548383 43.548383 0 0 1 418.54883 374 A 43.548383 43.548383 0 0 1 375 417.54883 A 43.548383 43.548383 0 0 1 331.45117 374 A 43.548383 43.548383 0 0 1 375 330.45117 z M 475 330.45117 A 43.548383 43.548383 0 0 1 518.54883 374 A 43.548383 43.548383 0 0 1 475 417.54883 A 43.548383 43.548383 0 0 1 431.45117 374 A 43.548383 43.548383 0 0 1 475 330.45117 z M 575 330.45117 A 43.548383 43.548383 0 0 1 618.54883 374 A 43.548383 43.548383 0 0 1 575 417.54883 A 43.548383 43.548383 0 0 1 531.45117 374 A 43.548383 43.548383 0 0 1 575 330.45117 z M 675 332.45117 A 43.548383 43.548383 0 0 1 718.54883 376 A 43.548383 43.548383 0 0 1 675 419.54883 A 43.548383 43.548383 0 0 1 631.45117 376 A 43.548383 43.548383 0 0 1 675 332.45117 z M 75 430.45117 A 43.548383 43.548383 0 0 1 118.54883 474 A 43.548383 43.548383 0 0 1 75 517.54883 A 43.548383 43.548383 0 0 1 31.451172 474 A 43.548383 43.548383 0 0 1 75 430.45117 z M 175 430.45117 A 43.548383 43.548383 0 0 1 218.54883 474 A 43.548383 43.548383 0 0 1 175 517.54883 A 43.548383 43.548383 0 0 1 131.45117 474 A 43.548383 43.548383 0 0 1 175 430.45117 z M 275 430.45117 A 43.548383 43.548383 0 0 1 318.54883 474 A 43.548383 43.548383 0 0 1 275 517.54883 A 43.548383 43.548383 0 0 1 231.45117 474 A 43.548383 43.548383 0 0 1 275 430.45117 z M 375 430.45117 A 43.548383 43.548383 0 0 1 418.54883 474 A 43.548383 43.548383 0 0 1 375 517.54883 A 43.548383 43.548383 0 0 1 331.45117 474 A 43.548383 43.548383 0 0 1 375 430.45117 z M 475 430.45117 A 43.548383 43.548383 0 0 1 518.54883 474 A 43.548383 43.548383 0 0 1 475 517.54883 A 43.548383 43.548383 0 0 1 431.45117 474 A 43.548383 43.548383 0 0 1 475 430.45117 z M 575 430.45117 A 43.548383 43.548383 0 0 1 618.54883 474 A 43.548383 43.548383 0 0 1 575 517.54883 A 43.548383 43.548383 0 0 1 531.45117 474 A 43.548383 43.548383 0 0 1 575 430.45117 z M 675 432.45117 A 43.548383 43.548383 0 0 1 718.54883 476 A 43.548383 43.548383 0 0 1 675 519.54883 A 43.548383 43.548383 0 0 1 631.45117 476 A 43.548383 43.548383 0 0 1 675 432.45117 z M 75 530.45117 A 43.548383 43.548383 0 0 1 118.54883 574 A 43.548383 43.548383 0 0 1 75 617.54883 A 43.548383 43.548383 0 0 1 31.451172 574 A 43.548383 43.548383 0 0 1 75 530.45117 z M 175 530.45117 A 43.548383 43.548383 0 0 1 218.54883 574 A 43.548383 43.548383 0 0 1 175 617.54883 A 43.548383 43.548383 0 0 1 131.45117 574 A 43.548383 43.548383 0 0 1 175 530.45117 z M 275 530.45117 A 43.548383 43.548383 0 0 1 318.54883 574 A 43.548383 43.548383 0 0 1 275 617.54883 A 43.548383 43.548383 0 0 1 231.45117 574 A 43.548383 43.548383 0 0 1 275 530.45117 z M 375 530.45117 A 43.548383 43.548383 0 0 1 418.54883 574 A 43.548383 43.548383 0 0 1 375 617.54883 A 43.548383 43.548383 0 0 1 331.45117 574 A 43.548383 43.548383 0 0 1 375 530.45117 z M 475 530.45117 A 43.548383 43.548383 0 0 1 518.54883 574 A 43.548383 43.548383 0 0 1 475 617.54883 A 43.548383 43.548383 0 0 1 431.45117 574 A 43.548383 43.548383 0 0 1 475 530.45117 z M 575 530.45117 A 43.548383 43.548383 0 0 1 618.54883 574 A 43.548383 43.548383 0 0 1 575 617.54883 A 43.548383 43.548383 0 0 1 531.45117 574 A 43.548383 43.548383 0 0 1 575 530.45117 z M 675 532.45117 A 43.548383 43.548383 0 0 1 718.54883 576 A 43.548383 43.548383 0 0 1 675 619.54883 A 43.548383 43.548383 0 0 1 631.45117 576 A 43.548383 43.548383 0 0 1 675 532.45117 z "
       transform="scale(0.26458333)" />
  </g>
</svg>
